<?xml version="1.0" encoding="utf-8"?>
<svg version="1.1" xmlns:xlink="http://www.w3.org/1999/xlink" width="12px" height="12px" viewBox="286 1199.5  12 12" xmlns="http://www.w3.org/2000/svg">
  <path d="M 292 1199.5  C 295.36 1199.5  298 1202.14  298 1205.5  C 298 1208.86  295.36 1211.5  292 1211.5  C 288.64 1211.5  286 1208.86  286 1205.5  C 286 1202.14  288.64 1199.5  292 1199.5  Z " fill-rule="nonzero" fill="#ffffff" stroke="none" />
  <path d="M 292 1200  C 295.08 1200  297.5 1202.42  297.5 1205.5  C 297.5 1208.58  295.08 1211  292 1211  C 288.92 1211  286.5 1208.58  286.5 1205.5  C 286.5 1202.42  288.92 1200  292 1200  Z " stroke-width="1" stroke="#797979" fill="none" />
  <path d="M 292 1208.5  C 290.32 1208.5  289 1207.18  289 1205.5  C 289 1203.82  290.32 1202.5  292 1202.5  C 293.68 1202.5  295 1203.82  295 1205.5  C 295 1207.18  293.68 1208.5  292 1208.5  " fill-rule="nonzero" fill="#797979" stroke="none" />
</svg>