<?xml version="1.0" encoding="utf-8"?>
<svg version="1.1" xmlns:xlink="http://www.w3.org/1999/xlink" width="12px" height="12px" viewBox="357 1199.5  12 12" xmlns="http://www.w3.org/2000/svg">
  <path d="M 363 1199.5  C 366.36 1199.5  369 1202.14  369 1205.5  C 369 1208.86  366.36 1211.5  363 1211.5  C 359.64 1211.5  357 1208.86  357 1205.5  C 357 1202.14  359.64 1199.5  363 1199.5  Z " fill-rule="nonzero" fill="#ffffff" stroke="none" />
  <path d="M 363 1200  C 366.08 1200  368.5 1202.42  368.5 1205.5  C 368.5 1208.58  366.08 1211  363 1211  C 359.92 1211  357.5 1208.58  357.5 1205.5  C 357.5 1202.42  359.92 1200  363 1200  Z " stroke-width="1" stroke="#797979" fill="none" />
  <path d="M 363 1208.5  C 361.32 1208.5  360 1207.18  360 1205.5  C 360 1203.82  361.32 1202.5  363 1202.5  C 364.68 1202.5  366 1203.82  366 1205.5  C 366 1207.18  364.68 1208.5  363 1208.5  " fill-rule="nonzero" fill="#797979" stroke="none" />
</svg>