<?xml version="1.0" encoding="utf-8"?>
<svg version="1.1" xmlns:xlink="http://www.w3.org/1999/xlink" width="12px" height="12px" viewBox="215 1199.5  12 12" xmlns="http://www.w3.org/2000/svg">
  <path d="M 221 1199.5  C 224.36 1199.5  227 1202.14  227 1205.5  C 227 1208.86  224.36 1211.5  221 1211.5  C 217.64 1211.5  215 1208.86  215 1205.5  C 215 1202.14  217.64 1199.5  221 1199.5  Z " fill-rule="nonzero" fill="#ffffff" stroke="none" />
  <path d="M 221 1200  C 224.08 1200  226.5 1202.42  226.5 1205.5  C 226.5 1208.58  224.08 1211  221 1211  C 217.92 1211  215.5 1208.58  215.5 1205.5  C 215.5 1202.42  217.92 1200  221 1200  Z " stroke-width="1" stroke="#797979" fill="none" />
  <path d="M 221 1208.5  C 219.32 1208.5  218 1207.18  218 1205.5  C 218 1203.82  219.32 1202.5  221 1202.5  C 222.68 1202.5  224 1203.82  224 1205.5  C 224 1207.18  222.68 1208.5  221 1208.5  " fill-rule="nonzero" fill="#797979" stroke="none" />
</svg>