<?xml version="1.0" encoding="utf-8"?>
<svg version="1.1" xmlns:xlink="http://www.w3.org/1999/xlink" width="12px" height="12px" viewBox="400 1293.5  12 12" xmlns="http://www.w3.org/2000/svg">
  <path d="M 406 1293.5  C 409.36 1293.5  412 1296.14  412 1299.5  C 412 1302.86  409.36 1305.5  406 1305.5  C 402.64 1305.5  400 1302.86  400 1299.5  C 400 1296.14  402.64 1293.5  406 1293.5  Z " fill-rule="nonzero" fill="#ffffff" stroke="none" />
  <path d="M 406 1294  C 409.08 1294  411.5 1296.42  411.5 1299.5  C 411.5 1302.58  409.08 1305  406 1305  C 402.92 1305  400.5 1302.58  400.5 1299.5  C 400.5 1296.42  402.92 1294  406 1294  Z " stroke-width="1" stroke="#797979" fill="none" />
  <path d="M 406 1302.5  C 404.32 1302.5  403 1301.18  403 1299.5  C 403 1297.82  404.32 1296.5  406 1296.5  C 407.68 1296.5  409 1297.82  409 1299.5  C 409 1301.18  407.68 1302.5  406 1302.5  " fill-rule="nonzero" fill="#797979" stroke="none" />
</svg>