<?xml version="1.0" encoding="utf-8"?>
<svg version="1.1" xmlns:xlink="http://www.w3.org/1999/xlink" width="12px" height="12px" viewBox="274 1293.5  12 12" xmlns="http://www.w3.org/2000/svg">
  <path d="M 280 1293.5  C 283.36 1293.5  286 1296.14  286 1299.5  C 286 1302.86  283.36 1305.5  280 1305.5  C 276.64 1305.5  274 1302.86  274 1299.5  C 274 1296.14  276.64 1293.5  280 1293.5  Z " fill-rule="nonzero" fill="#ffffff" stroke="none" />
  <path d="M 280 1294  C 283.08 1294  285.5 1296.42  285.5 1299.5  C 285.5 1302.58  283.08 1305  280 1305  C 276.92 1305  274.5 1302.58  274.5 1299.5  C 274.5 1296.42  276.92 1294  280 1294  Z " stroke-width="1" stroke="#797979" fill="none" />
  <path d="M 280 1302.5  C 278.32 1302.5  277 1301.18  277 1299.5  C 277 1297.82  278.32 1296.5  280 1296.5  C 281.68 1296.5  283 1297.82  283 1299.5  C 283 1301.18  281.68 1302.5  280 1302.5  " fill-rule="nonzero" fill="#797979" stroke="none" />
</svg>