<?xml version="1.0" encoding="utf-8"?>
<svg version="1.1" xmlns:xlink="http://www.w3.org/1999/xlink" width="20px" height="20px" viewBox="476 449  20 20" xmlns="http://www.w3.org/2000/svg">
  <path d="M 486 449  C 491.6 449  496 453.4  496 459  C 496 464.6  491.6 469  486 469  C 480.4 469  476 464.6  476 459  C 476 453.4  480.4 449  486 449  Z " fill-rule="nonzero" fill="#ffffff" stroke="none" />
  <path d="M 486 449.5  C 491.32 449.5  495.5 453.68  495.5 459  C 495.5 464.32  491.32 468.5  486 468.5  C 480.68 468.5  476.5 464.32  476.5 459  C 476.5 453.68  480.68 449.5  486 449.5  Z " stroke-width="1" stroke="#797979" fill="none" />
  <path d="M 486 464  C 483.2 464  481 461.8  481 459  C 481 456.2  483.2 454  486 454  C 488.8 454  491 456.2  491 459  C 491 461.8  488.8 464  486 464  " fill-rule="nonzero" fill="#797979" stroke="none" />
</svg>