<?xml version="1.0" encoding="utf-8"?>
<svg version="1.1" xmlns:xlink="http://www.w3.org/1999/xlink" width="12px" height="12px" viewBox="215 324.5  12 12" xmlns="http://www.w3.org/2000/svg">
  <path d="M 221 324.5  C 224.36 324.5  227 327.14  227 330.5  C 227 333.86  224.36 336.5  221 336.5  C 217.64 336.5  215 333.86  215 330.5  C 215 327.14  217.64 324.5  221 324.5  Z " fill-rule="nonzero" fill="#ffffff" stroke="none" />
  <path d="M 221 325  C 224.08 325  226.5 327.42  226.5 330.5  C 226.5 333.58  224.08 336  221 336  C 217.92 336  215.5 333.58  215.5 330.5  C 215.5 327.42  217.92 325  221 325  Z " stroke-width="1" stroke="#797979" fill="none" />
  <path d="M 221 333.5  C 219.32 333.5  218 332.18  218 330.5  C 218 328.82  219.32 327.5  221 327.5  C 222.68 327.5  224 328.82  224 330.5  C 224 332.18  222.68 333.5  221 333.5  " fill-rule="nonzero" fill="#797979" stroke="none" />
</svg>