<?xml version="1.0" encoding="utf-8"?>
<svg version="1.1" xmlns:xlink="http://www.w3.org/1999/xlink" width="12px" height="12px" viewBox="500 324.5  12 12" xmlns="http://www.w3.org/2000/svg">
  <path d="M 506 324.5  C 509.36 324.5  512 327.14  512 330.5  C 512 333.86  509.36 336.5  506 336.5  C 502.64 336.5  500 333.86  500 330.5  C 500 327.14  502.64 324.5  506 324.5  Z " fill-rule="nonzero" fill="#ffffff" stroke="none" />
  <path d="M 506 325  C 509.08 325  511.5 327.42  511.5 330.5  C 511.5 333.58  509.08 336  506 336  C 502.92 336  500.5 333.58  500.5 330.5  C 500.5 327.42  502.92 325  506 325  Z " stroke-width="1" stroke="#797979" fill="none" />
  <path d="M 506 333.5  C 504.32 333.5  503 332.18  503 330.5  C 503 328.82  504.32 327.5  506 327.5  C 507.68 327.5  509 328.82  509 330.5  C 509 332.18  507.68 333.5  506 333.5  " fill-rule="nonzero" fill="#797979" stroke="none" />
</svg>