<?xml version="1.0" encoding="utf-8"?>
<svg version="1.1" xmlns:xlink="http://www.w3.org/1999/xlink" width="12px" height="12px" viewBox="400 418.5  12 12" xmlns="http://www.w3.org/2000/svg">
  <path d="M 406 418.5  C 409.36 418.5  412 421.14  412 424.5  C 412 427.86  409.36 430.5  406 430.5  C 402.64 430.5  400 427.86  400 424.5  C 400 421.14  402.64 418.5  406 418.5  Z " fill-rule="nonzero" fill="#ffffff" stroke="none" />
  <path d="M 406 419  C 409.08 419  411.5 421.42  411.5 424.5  C 411.5 427.58  409.08 430  406 430  C 402.92 430  400.5 427.58  400.5 424.5  C 400.5 421.42  402.92 419  406 419  Z " stroke-width="1" stroke="#797979" fill="none" />
  <path d="M 406 427.5  C 404.32 427.5  403 426.18  403 424.5  C 403 422.82  404.32 421.5  406 421.5  C 407.68 421.5  409 422.82  409 424.5  C 409 426.18  407.68 427.5  406 427.5  " fill-rule="nonzero" fill="#797979" stroke="none" />
</svg>