<?xml version="1.0" encoding="utf-8"?>
<svg version="1.1" xmlns:xlink="http://www.w3.org/1999/xlink" width="12px" height="12px" viewBox="274 418.5  12 12" xmlns="http://www.w3.org/2000/svg">
  <path d="M 280 418.5  C 283.36 418.5  286 421.14  286 424.5  C 286 427.86  283.36 430.5  280 430.5  C 276.64 430.5  274 427.86  274 424.5  C 274 421.14  276.64 418.5  280 418.5  Z " fill-rule="nonzero" fill="#ffffff" stroke="none" />
  <path d="M 280 419  C 283.08 419  285.5 421.42  285.5 424.5  C 285.5 427.58  283.08 430  280 430  C 276.92 430  274.5 427.58  274.5 424.5  C 274.5 421.42  276.92 419  280 419  Z " stroke-width="1" stroke="#797979" fill="none" />
  <path d="M 280 427.5  C 278.32 427.5  277 426.18  277 424.5  C 277 422.82  278.32 421.5  280 421.5  C 281.68 421.5  283 422.82  283 424.5  C 283 426.18  281.68 427.5  280 427.5  " fill-rule="nonzero" fill="#797979" stroke="none" />
</svg>