<?xml version="1.0" encoding="utf-8"?>
<svg version="1.1" xmlns:xlink="http://www.w3.org/1999/xlink" width="12px" height="12px" viewBox="500 1538.5  12 12" xmlns="http://www.w3.org/2000/svg">
  <path d="M 506 1538.5  C 509.36 1538.5  512 1541.14  512 1544.5  C 512 1547.86  509.36 1550.5  506 1550.5  C 502.64 1550.5  500 1547.86  500 1544.5  C 500 1541.14  502.64 1538.5  506 1538.5  Z " fill-rule="nonzero" fill="#ffffff" stroke="none" />
  <path d="M 506 1539  C 509.08 1539  511.5 1541.42  511.5 1544.5  C 511.5 1547.58  509.08 1550  506 1550  C 502.92 1550  500.5 1547.58  500.5 1544.5  C 500.5 1541.42  502.92 1539  506 1539  Z " stroke-width="1" stroke="#797979" fill="none" />
  <path d="M 506 1547.5  C 504.32 1547.5  503 1546.18  503 1544.5  C 503 1542.82  504.32 1541.5  506 1541.5  C 507.68 1541.5  509 1542.82  509 1544.5  C 509 1546.18  507.68 1547.5  506 1547.5  " fill-rule="nonzero" fill="#797979" stroke="none" />
</svg>