<?xml version="1.0" encoding="utf-8"?>
<svg version="1.1" xmlns:xlink="http://www.w3.org/1999/xlink" width="12px" height="12px" viewBox="286 1538.5  12 12" xmlns="http://www.w3.org/2000/svg">
  <path d="M 292 1538.5  C 295.36 1538.5  298 1541.14  298 1544.5  C 298 1547.86  295.36 1550.5  292 1550.5  C 288.64 1550.5  286 1547.86  286 1544.5  C 286 1541.14  288.64 1538.5  292 1538.5  Z " fill-rule="nonzero" fill="#ffffff" stroke="none" />
  <path d="M 292 1539  C 295.08 1539  297.5 1541.42  297.5 1544.5  C 297.5 1547.58  295.08 1550  292 1550  C 288.92 1550  286.5 1547.58  286.5 1544.5  C 286.5 1541.42  288.92 1539  292 1539  Z " stroke-width="1" stroke="#797979" fill="none" />
  <path d="M 292 1547.5  C 290.32 1547.5  289 1546.18  289 1544.5  C 289 1542.82  290.32 1541.5  292 1541.5  C 293.68 1541.5  295 1542.82  295 1544.5  C 295 1546.18  293.68 1547.5  292 1547.5  " fill-rule="nonzero" fill="#797979" stroke="none" />
</svg>