<?xml version="1.0" encoding="utf-8"?>
<svg version="1.1" xmlns:xlink="http://www.w3.org/1999/xlink" width="12px" height="12px" viewBox="274 1632.5  12 12" xmlns="http://www.w3.org/2000/svg">
  <path d="M 280 1632.5  C 283.36 1632.5  286 1635.14  286 1638.5  C 286 1641.86  283.36 1644.5  280 1644.5  C 276.64 1644.5  274 1641.86  274 1638.5  C 274 1635.14  276.64 1632.5  280 1632.5  Z " fill-rule="nonzero" fill="#ffffff" stroke="none" />
  <path d="M 280 1633  C 283.08 1633  285.5 1635.42  285.5 1638.5  C 285.5 1641.58  283.08 1644  280 1644  C 276.92 1644  274.5 1641.58  274.5 1638.5  C 274.5 1635.42  276.92 1633  280 1633  Z " stroke-width="1" stroke="#797979" fill="none" />
  <path d="M 280 1641.5  C 278.32 1641.5  277 1640.18  277 1638.5  C 277 1636.82  278.32 1635.5  280 1635.5  C 281.68 1635.5  283 1636.82  283 1638.5  C 283 1640.18  281.68 1641.5  280 1641.5  " fill-rule="nonzero" fill="#797979" stroke="none" />
</svg>