<?xml version="1.0" encoding="utf-8"?>
<svg version="1.1" xmlns:xlink="http://www.w3.org/1999/xlink" width="12px" height="12px" viewBox="215 1874.5  12 12" xmlns="http://www.w3.org/2000/svg">
  <path d="M 221 1874.5  C 224.36 1874.5  227 1877.14  227 1880.5  C 227 1883.86  224.36 1886.5  221 1886.5  C 217.64 1886.5  215 1883.86  215 1880.5  C 215 1877.14  217.64 1874.5  221 1874.5  Z " fill-rule="nonzero" fill="#ffffff" stroke="none" />
  <path d="M 221 1875  C 224.08 1875  226.5 1877.42  226.5 1880.5  C 226.5 1883.58  224.08 1886  221 1886  C 217.92 1886  215.5 1883.58  215.5 1880.5  C 215.5 1877.42  217.92 1875  221 1875  Z " stroke-width="1" stroke="#797979" fill="none" />
  <path d="M 221 1883.5  C 219.32 1883.5  218 1882.18  218 1880.5  C 218 1878.82  219.32 1877.5  221 1877.5  C 222.68 1877.5  224 1878.82  224 1880.5  C 224 1882.18  222.68 1883.5  221 1883.5  " fill-rule="nonzero" fill="#797979" stroke="none" />
</svg>