<?xml version="1.0" encoding="utf-8"?>
<svg version="1.1" xmlns:xlink="http://www.w3.org/1999/xlink" width="12px" height="12px" viewBox="357 1874.5  12 12" xmlns="http://www.w3.org/2000/svg">
  <path d="M 363 1874.5  C 366.36 1874.5  369 1877.14  369 1880.5  C 369 1883.86  366.36 1886.5  363 1886.5  C 359.64 1886.5  357 1883.86  357 1880.5  C 357 1877.14  359.64 1874.5  363 1874.5  Z " fill-rule="nonzero" fill="#ffffff" stroke="none" />
  <path d="M 363 1875  C 366.08 1875  368.5 1877.42  368.5 1880.5  C 368.5 1883.58  366.08 1886  363 1886  C 359.92 1886  357.5 1883.58  357.5 1880.5  C 357.5 1877.42  359.92 1875  363 1875  Z " stroke-width="1" stroke="#797979" fill="none" />
  <path d="M 363 1883.5  C 361.32 1883.5  360 1882.18  360 1880.5  C 360 1878.82  361.32 1877.5  363 1877.5  C 364.68 1877.5  366 1878.82  366 1880.5  C 366 1882.18  364.68 1883.5  363 1883.5  " fill-rule="nonzero" fill="#797979" stroke="none" />
</svg>