<?xml version="1.0" encoding="utf-8"?>
<svg version="1.1" xmlns:xlink="http://www.w3.org/1999/xlink" width="12px" height="12px" viewBox="500 1874.5  12 12" xmlns="http://www.w3.org/2000/svg">
  <path d="M 506 1874.5  C 509.36 1874.5  512 1877.14  512 1880.5  C 512 1883.86  509.36 1886.5  506 1886.5  C 502.64 1886.5  500 1883.86  500 1880.5  C 500 1877.14  502.64 1874.5  506 1874.5  Z " fill-rule="nonzero" fill="#ffffff" stroke="none" />
  <path d="M 506 1875  C 509.08 1875  511.5 1877.42  511.5 1880.5  C 511.5 1883.58  509.08 1886  506 1886  C 502.92 1886  500.5 1883.58  500.5 1880.5  C 500.5 1877.42  502.92 1875  506 1875  Z " stroke-width="1" stroke="#797979" fill="none" />
  <path d="M 506 1883.5  C 504.32 1883.5  503 1882.18  503 1880.5  C 503 1878.82  504.32 1877.5  506 1877.5  C 507.68 1877.5  509 1878.82  509 1880.5  C 509 1882.18  507.68 1883.5  506 1883.5  " fill-rule="nonzero" fill="#797979" stroke="none" />
</svg>