<?xml version="1.0" encoding="utf-8"?>
<svg version="1.1" xmlns:xlink="http://www.w3.org/1999/xlink" width="12px" height="12px" viewBox="400 1968.5  12 12" xmlns="http://www.w3.org/2000/svg">
  <path d="M 406 1968.5  C 409.36 1968.5  412 1971.14  412 1974.5  C 412 1977.86  409.36 1980.5  406 1980.5  C 402.64 1980.5  400 1977.86  400 1974.5  C 400 1971.14  402.64 1968.5  406 1968.5  Z " fill-rule="nonzero" fill="#ffffff" stroke="none" />
  <path d="M 406 1969  C 409.08 1969  411.5 1971.42  411.5 1974.5  C 411.5 1977.58  409.08 1980  406 1980  C 402.92 1980  400.5 1977.58  400.5 1974.5  C 400.5 1971.42  402.92 1969  406 1969  Z " stroke-width="1" stroke="#797979" fill="none" />
  <path d="M 406 1977.5  C 404.32 1977.5  403 1976.18  403 1974.5  C 403 1972.82  404.32 1971.5  406 1971.5  C 407.68 1971.5  409 1972.82  409 1974.5  C 409 1976.18  407.68 1977.5  406 1977.5  " fill-rule="nonzero" fill="#797979" stroke="none" />
</svg>