<?xml version="1.0" encoding="utf-8"?>
<svg version="1.1" xmlns:xlink="http://www.w3.org/1999/xlink" width="12px" height="12px" viewBox="274 1968.5  12 12" xmlns="http://www.w3.org/2000/svg">
  <path d="M 280 1968.5  C 283.36 1968.5  286 1971.14  286 1974.5  C 286 1977.86  283.36 1980.5  280 1980.5  C 276.64 1980.5  274 1977.86  274 1974.5  C 274 1971.14  276.64 1968.5  280 1968.5  Z " fill-rule="nonzero" fill="#ffffff" stroke="none" />
  <path d="M 280 1969  C 283.08 1969  285.5 1971.42  285.5 1974.5  C 285.5 1977.58  283.08 1980  280 1980  C 276.92 1980  274.5 1977.58  274.5 1974.5  C 274.5 1971.42  276.92 1969  280 1969  Z " stroke-width="1" stroke="#797979" fill="none" />
  <path d="M 280 1977.5  C 278.32 1977.5  277 1976.18  277 1974.5  C 277 1972.82  278.32 1971.5  280 1971.5  C 281.68 1971.5  283 1972.82  283 1974.5  C 283 1976.18  281.68 1977.5  280 1977.5  " fill-rule="nonzero" fill="#797979" stroke="none" />
</svg>