<?xml version="1.0" encoding="utf-8"?>
<svg version="1.1" xmlns:xlink="http://www.w3.org/1999/xlink" width="12px" height="12px" viewBox="215 2208.5  12 12" xmlns="http://www.w3.org/2000/svg">
  <path d="M 221 2208.5  C 224.36 2208.5  227 2211.14  227 2214.5  C 227 2217.86  224.36 2220.5  221 2220.5  C 217.64 2220.5  215 2217.86  215 2214.5  C 215 2211.14  217.64 2208.5  221 2208.5  Z " fill-rule="nonzero" fill="#ffffff" stroke="none" />
  <path d="M 221 2209  C 224.08 2209  226.5 2211.42  226.5 2214.5  C 226.5 2217.58  224.08 2220  221 2220  C 217.92 2220  215.5 2217.58  215.5 2214.5  C 215.5 2211.42  217.92 2209  221 2209  Z " stroke-width="1" stroke="#797979" fill="none" />
  <path d="M 221 2217.5  C 219.32 2217.5  218 2216.18  218 2214.5  C 218 2212.82  219.32 2211.5  221 2211.5  C 222.68 2211.5  224 2212.82  224 2214.5  C 224 2216.18  222.68 2217.5  221 2217.5  " fill-rule="nonzero" fill="#797979" stroke="none" />
</svg>