<?xml version="1.0" encoding="utf-8"?>
<svg version="1.1" xmlns:xlink="http://www.w3.org/1999/xlink" width="12px" height="12px" viewBox="286 2208.5  12 12" xmlns="http://www.w3.org/2000/svg">
  <path d="M 292 2208.5  C 295.36 2208.5  298 2211.14  298 2214.5  C 298 2217.86  295.36 2220.5  292 2220.5  C 288.64 2220.5  286 2217.86  286 2214.5  C 286 2211.14  288.64 2208.5  292 2208.5  Z " fill-rule="nonzero" fill="#ffffff" stroke="none" />
  <path d="M 292 2209  C 295.08 2209  297.5 2211.42  297.5 2214.5  C 297.5 2217.58  295.08 2220  292 2220  C 288.92 2220  286.5 2217.58  286.5 2214.5  C 286.5 2211.42  288.92 2209  292 2209  Z " stroke-width="1" stroke="#797979" fill="none" />
  <path d="M 292 2217.5  C 290.32 2217.5  289 2216.18  289 2214.5  C 289 2212.82  290.32 2211.5  292 2211.5  C 293.68 2211.5  295 2212.82  295 2214.5  C 295 2216.18  293.68 2217.5  292 2217.5  " fill-rule="nonzero" fill="#797979" stroke="none" />
</svg>