<?xml version="1.0" encoding="utf-8"?>
<svg version="1.1" xmlns:xlink="http://www.w3.org/1999/xlink" width="12px" height="12px" viewBox="357 2208.5  12 12" xmlns="http://www.w3.org/2000/svg">
  <path d="M 363 2208.5  C 366.36 2208.5  369 2211.14  369 2214.5  C 369 2217.86  366.36 2220.5  363 2220.5  C 359.64 2220.5  357 2217.86  357 2214.5  C 357 2211.14  359.64 2208.5  363 2208.5  Z " fill-rule="nonzero" fill="#ffffff" stroke="none" />
  <path d="M 363 2209  C 366.08 2209  368.5 2211.42  368.5 2214.5  C 368.5 2217.58  366.08 2220  363 2220  C 359.92 2220  357.5 2217.58  357.5 2214.5  C 357.5 2211.42  359.92 2209  363 2209  Z " stroke-width="1" stroke="#797979" fill="none" />
  <path d="M 363 2217.5  C 361.32 2217.5  360 2216.18  360 2214.5  C 360 2212.82  361.32 2211.5  363 2211.5  C 364.68 2211.5  366 2212.82  366 2214.5  C 366 2216.18  364.68 2217.5  363 2217.5  " fill-rule="nonzero" fill="#797979" stroke="none" />
</svg>