<?xml version="1.0" encoding="utf-8"?>
<svg version="1.1" xmlns:xlink="http://www.w3.org/1999/xlink" width="12px" height="12px" viewBox="400 2302.5  12 12" xmlns="http://www.w3.org/2000/svg">
  <path d="M 406 2302.5  C 409.36 2302.5  412 2305.14  412 2308.5  C 412 2311.86  409.36 2314.5  406 2314.5  C 402.64 2314.5  400 2311.86  400 2308.5  C 400 2305.14  402.64 2302.5  406 2302.5  Z " fill-rule="nonzero" fill="#ffffff" stroke="none" />
  <path d="M 406 2303  C 409.08 2303  411.5 2305.42  411.5 2308.5  C 411.5 2311.58  409.08 2314  406 2314  C 402.92 2314  400.5 2311.58  400.5 2308.5  C 400.5 2305.42  402.92 2303  406 2303  Z " stroke-width="1" stroke="#797979" fill="none" />
  <path d="M 406 2311.5  C 404.32 2311.5  403 2310.18  403 2308.5  C 403 2306.82  404.32 2305.5  406 2305.5  C 407.68 2305.5  409 2306.82  409 2308.5  C 409 2310.18  407.68 2311.5  406 2311.5  " fill-rule="nonzero" fill="#797979" stroke="none" />
</svg>