<?xml version="1.0" encoding="utf-8"?>
<svg version="1.1" xmlns:xlink="http://www.w3.org/1999/xlink" width="12px" height="12px" viewBox="286 2547.5  12 12" xmlns="http://www.w3.org/2000/svg">
  <path d="M 292 2547.5  C 295.36 2547.5  298 2550.14  298 2553.5  C 298 2556.86  295.36 2559.5  292 2559.5  C 288.64 2559.5  286 2556.86  286 2553.5  C 286 2550.14  288.64 2547.5  292 2547.5  Z " fill-rule="nonzero" fill="#ffffff" stroke="none" />
  <path d="M 292 2548  C 295.08 2548  297.5 2550.42  297.5 2553.5  C 297.5 2556.58  295.08 2559  292 2559  C 288.92 2559  286.5 2556.58  286.5 2553.5  C 286.5 2550.42  288.92 2548  292 2548  Z " stroke-width="1" stroke="#797979" fill="none" />
  <path d="M 292 2556.5  C 290.32 2556.5  289 2555.18  289 2553.5  C 289 2551.82  290.32 2550.5  292 2550.5  C 293.68 2550.5  295 2551.82  295 2553.5  C 295 2555.18  293.68 2556.5  292 2556.5  " fill-rule="nonzero" fill="#797979" stroke="none" />
</svg>