<?xml version="1.0" encoding="utf-8"?>
<svg version="1.1" xmlns:xlink="http://www.w3.org/1999/xlink" width="12px" height="12px" viewBox="274 2641.5  12 12" xmlns="http://www.w3.org/2000/svg">
  <path d="M 280 2641.5  C 283.36 2641.5  286 2644.14  286 2647.5  C 286 2650.86  283.36 2653.5  280 2653.5  C 276.64 2653.5  274 2650.86  274 2647.5  C 274 2644.14  276.64 2641.5  280 2641.5  Z " fill-rule="nonzero" fill="#ffffff" stroke="none" />
  <path d="M 280 2642  C 283.08 2642  285.5 2644.42  285.5 2647.5  C 285.5 2650.58  283.08 2653  280 2653  C 276.92 2653  274.5 2650.58  274.5 2647.5  C 274.5 2644.42  276.92 2642  280 2642  Z " stroke-width="1" stroke="#797979" fill="none" />
  <path d="M 280 2650.5  C 278.32 2650.5  277 2649.18  277 2647.5  C 277 2645.82  278.32 2644.5  280 2644.5  C 281.68 2644.5  283 2645.82  283 2647.5  C 283 2649.18  281.68 2650.5  280 2650.5  " fill-rule="nonzero" fill="#797979" stroke="none" />
</svg>