<?xml version="1.0" encoding="utf-8"?>
<svg version="1.1" xmlns:xlink="http://www.w3.org/1999/xlink" width="12px" height="12px" viewBox="400 2641.5  12 12" xmlns="http://www.w3.org/2000/svg">
  <path d="M 406 2641.5  C 409.36 2641.5  412 2644.14  412 2647.5  C 412 2650.86  409.36 2653.5  406 2653.5  C 402.64 2653.5  400 2650.86  400 2647.5  C 400 2644.14  402.64 2641.5  406 2641.5  Z " fill-rule="nonzero" fill="#ffffff" stroke="none" />
  <path d="M 406 2642  C 409.08 2642  411.5 2644.42  411.5 2647.5  C 411.5 2650.58  409.08 2653  406 2653  C 402.92 2653  400.5 2650.58  400.5 2647.5  C 400.5 2644.42  402.92 2642  406 2642  Z " stroke-width="1" stroke="#797979" fill="none" />
  <path d="M 406 2650.5  C 404.32 2650.5  403 2649.18  403 2647.5  C 403 2645.82  404.32 2644.5  406 2644.5  C 407.68 2644.5  409 2645.82  409 2647.5  C 409 2649.18  407.68 2650.5  406 2650.5  " fill-rule="nonzero" fill="#797979" stroke="none" />
</svg>