<?xml version="1.0" encoding="utf-8"?>
<svg version="1.1" xmlns:xlink="http://www.w3.org/1999/xlink" width="316px" height="17px" xmlns="http://www.w3.org/2000/svg">
  <defs>
    <mask fill="white" id="clip172">
      <path d="M 0 11.9  L 0 0  L 170 0  L 316 0  L 316 11.9  C 316 14.756  314.68 17  313 17  L 3 17  C 1.32 17  0 14.756  0 11.9  Z " fill-rule="evenodd" />
    </mask>
  </defs>
  <g transform="matrix(1 0 0 1 -20 -43 )">
    <path d="M 0 11.9  L 0 0  L 170 0  L 316 0  L 316 11.9  C 316 14.756  314.68 17  313 17  L 3 17  C 1.32 17  0 14.756  0 11.9  Z " fill-rule="nonzero" fill="#f2f2f2" stroke="none" transform="matrix(1 0 0 1 20 43 )" />
    <path d="M 0 11.9  L 0 0  L 170 0  L 316 0  L 316 11.9  C 316 14.756  314.68 17  313 17  L 3 17  C 1.32 17  0 14.756  0 11.9  Z " stroke-width="2" stroke="#797979" fill="none" transform="matrix(1 0 0 1 20 43 )" mask="url(#clip172)" />
  </g>
</svg>