<?xml version="1.0" encoding="utf-8"?>
<svg version="1.1" xmlns:xlink="http://www.w3.org/1999/xlink" width="46px" height="61px" xmlns="http://www.w3.org/2000/svg">
  <defs>
    <linearGradient gradientUnits="userSpaceOnUse" x1="996.5" y1="163" x2="996.5" y2="223" id="LinearGradient7">
      <stop id="Stop8" stop-color="#ffffff" offset="0" />
      <stop id="Stop9" stop-color="#f2f2f2" offset="0" />
      <stop id="Stop10" stop-color="#e4e4e4" offset="1" />
      <stop id="Stop11" stop-color="#ffffff" offset="1" />
    </linearGradient>
  </defs>
  <g transform="matrix(1 0 0 1 -974 -163 )">
    <path d="M 996.5 163.5  C 1001.26 163.5  1005 167.24  1005 172  C 1005 176.76  1001.26 180.5  996.5 180.5  C 991.74 180.5  988 176.76  988 172  C 988 167.24  991.74 163.5  996.5 163.5  Z " fill-rule="nonzero" fill="url(#LinearGradient7)" stroke="none" />
    <path d="M 996.5 163.5  C 1001.26 163.5  1005 167.24  1005 172  C 1005 176.76  1001.26 180.5  996.5 180.5  C 991.74 180.5  988 176.76  988 172  C 988 167.24  991.74 163.5  996.5 163.5  Z " stroke-width="1" stroke="#797979" fill="none" />
    <path d="M 974 190  L 1019 190  M 996.5 181  L 996.5 200.5  M 978.5 223  L 996.5 200.5  M 996.5 200.5  L 1014.5 223  " stroke-width="1" stroke="#797979" fill="none" />
  </g>
</svg>