<?xml version="1.0" encoding="utf-8"?>
<svg version="1.1" xmlns:xlink="http://www.w3.org/1999/xlink" width="130px" height="50px" xmlns="http://www.w3.org/2000/svg">
  <g transform="matrix(1 0 0 1 -116 -42 )">
    <path d="M 116.5 85.6176470588235  C 116.5 85.6176470588235  116.5 42.5  116.5 42.5  C 116.5 42.5  245.5 42.5  245.5 42.5  C 245.5 42.5  245.5 85.6176470588235  245.5 85.6176470588235  C 245.5 85.6176470588235  154.030512520501 85.6176470588235  154.030512520501 85.6176470588235  C 154.030512520501 85.6176470588235  144.166666666667 91.4199093257848  144.166666666667 91.4199093257848  C 144.166666666667 91.4199093257848  134.302820812832 85.6176470588235  134.302820812832 85.6176470588235  C 134.302820812832 85.6176470588235  116.5 85.6176470588235  116.5 85.6176470588235  Z " fill-rule="nonzero" fill="#ffffff" stroke="none" />
    <path d="M 116 86.1176470588235  C 116 86.1176470588235  116 42  116 42  C 116 42  246 42  246 42  C 246 42  246 86.1176470588235  246 86.1176470588235  C 246 86.1176470588235  154.166666666667 86.1176470588235  154.166666666667 86.1176470588235  C 154.166666666667 86.1176470588235  144.166666666667 92  144.166666666667 92  C 144.166666666667 92  134.166666666667 86.1176470588235  134.166666666667 86.1176470588235  C 134.166666666667 86.1176470588235  116 86.1176470588235  116 86.1176470588235  Z M 117 85.1176470588235  C 117 85.1176470588235  134.438974958998 85.1176470588235  134.438974958998 85.1176470588235  C 134.438974958998 85.1176470588235  144.166666666667 90.8398186515697  144.166666666667 90.8398186515697  C 144.166666666667 90.8398186515697  153.894358374335 85.1176470588235  153.894358374335 85.1176470588235  C 153.894358374335 85.1176470588235  245 85.1176470588235  245 85.1176470588235  C 245 85.1176470588235  245 43  245 43  C 245 43  117 43  117 43  C 117 43  117 85.1176470588235  117 85.1176470588235  Z " fill-rule="nonzero" fill="#797979" stroke="none" />
  </g>
</svg>