<?xml version="1.0" encoding="utf-8"?>
<svg version="1.1" xmlns:xlink="http://www.w3.org/1999/xlink" width="172px" height="33px" xmlns="http://www.w3.org/2000/svg">
  <g transform="matrix(1 0 0 1 -127 -222 )">
    <path d="M 127 242.588235294118  C 127 242.588235294118  127 227  127 227  C 127 224.238576250846  129.238576250846 222  132 222  C 132 222  294 222  294 222  C 296.761423749154 222  299 224.238576250846  299 227  C 299 227  299 242.588235294118  299 242.588235294118  C 299 245.349659043272  296.761423749154 247.588235294118  294 247.588235294118  C 294 247.588235294118  218.866666666667 247.588235294118  218.866666666667 247.588235294118  C 218.866666666667 247.588235294118  209.266666666667 255  209.266666666667 255  C 209.266666666667 255  199.666666666667 247.588235294118  199.666666666667 247.588235294118  C 199.666666666667 247.588235294118  132 247.588235294118  132 247.588235294118  C 129.238576250846 247.588235294118  127 245.349659043272  127 242.588235294118  Z " fill-rule="nonzero" fill="#999999" stroke="none" />
  </g>
</svg>