<?xml version="1.0" encoding="utf-8"?>
<svg version="1.1" xmlns:xlink="http://www.w3.org/1999/xlink" width="15px" height="15px" xmlns="http://www.w3.org/2000/svg">
  <g transform="matrix(1 0 0 1 -136 -92 )">
    <path d="M 143.5 92  C 147.7 92  151 95.3  151 99.5  C 151 103.7  147.7 107  143.5 107  C 139.3 107  136 103.7  136 99.5  C 136 95.3  139.3 92  143.5 92  Z " fill-rule="nonzero" fill="#999999" stroke="none" />
    <path d="M 143.5 92.5  C 147.42 92.5  150.5 95.58  150.5 99.5  C 150.5 103.42  147.42 106.5  143.5 106.5  C 139.58 106.5  136.5 103.42  136.5 99.5  C 136.5 95.58  139.58 92.5  143.5 92.5  Z " stroke-width="1" stroke="#999999" fill="none" />
  </g>
</svg>