<?xml version="1.0" encoding="utf-8"?>
<svg version="1.1" xmlns:xlink="http://www.w3.org/1999/xlink" width="129px" height="32px" xmlns="http://www.w3.org/2000/svg">
  <g transform="matrix(1 0 0 1 -1113 -193 )">
    <path d="M 1114 197  A 3 3 0 0 1 1117 194 L 1238 194  A 3 3 0 0 1 1241 197 L 1241 221  A 3 3 0 0 1 1238 224 L 1117 224  A 3 3 0 0 1 1114 221 L 1114 197  Z " fill-rule="nonzero" fill="#ffffff" stroke="none" />
    <path d="M 1113.5 197  A 3.5 3.5 0 0 1 1117 193.5 L 1238 193.5  A 3.5 3.5 0 0 1 1241.5 197 L 1241.5 221  A 3.5 3.5 0 0 1 1238 224.5 L 1117 224.5  A 3.5 3.5 0 0 1 1113.5 221 L 1113.5 197  Z " stroke-width="1" stroke="#1890ff" fill="none" stroke-opacity="0.996078431372549" />
  </g>
</svg>