<?xml version="1.0" encoding="utf-8"?>
<svg version="1.1" xmlns:xlink="http://www.w3.org/1999/xlink" width="20px" height="20px" viewBox="497 484  20 20" xmlns="http://www.w3.org/2000/svg">
  <path d="M 507 484  C 512.6 484  517 488.4  517 494  C 517 499.6  512.6 504  507 504  C 501.4 504  497 499.6  497 494  C 497 488.4  501.4 484  507 484  Z " fill-rule="nonzero" fill="#ffffff" stroke="none" />
  <path d="M 507 484.5  C 512.32 484.5  516.5 488.68  516.5 494  C 516.5 499.32  512.32 503.5  507 503.5  C 501.68 503.5  497.5 499.32  497.5 494  C 497.5 488.68  501.68 484.5  507 484.5  Z " stroke-width="1" stroke="#797979" fill="none" />
  <path d="M 507 499  C 504.2 499  502 496.8  502 494  C 502 491.2  504.2 489  507 489  C 509.8 489  512 491.2  512 494  C 512 496.8  509.8 499  507 499  " fill-rule="nonzero" fill="#797979" stroke="none" />
</svg>