<?xml version="1.0" encoding="utf-8"?>
<svg version="1.1" xmlns:xlink="http://www.w3.org/1999/xlink" width="20px" height="20px" viewBox="209 484  20 20" xmlns="http://www.w3.org/2000/svg">
  <path d="M 219 484  C 224.6 484  229 488.4  229 494  C 229 499.6  224.6 504  219 504  C 213.4 504  209 499.6  209 494  C 209 488.4  213.4 484  219 484  Z " fill-rule="nonzero" fill="#ffffff" stroke="none" />
  <path d="M 219 484.5  C 224.32 484.5  228.5 488.68  228.5 494  C 228.5 499.32  224.32 503.5  219 503.5  C 213.68 503.5  209.5 499.32  209.5 494  C 209.5 488.68  213.68 484.5  219 484.5  Z " stroke-width="1" stroke="#797979" fill="none" />
  <path d="M 219 499  C 216.2 499  214 496.8  214 494  C 214 491.2  216.2 489  219 489  C 221.8 489  224 491.2  224 494  C 224 496.8  221.8 499  219 499  " fill-rule="nonzero" fill="#797979" stroke="none" />
</svg>