<?xml version="1.0" encoding="utf-8"?>
<svg version="1.1" xmlns:xlink="http://www.w3.org/1999/xlink" width="12px" height="12px" viewBox="395 225.5  12 12" xmlns="http://www.w3.org/2000/svg">
  <path d="M 401 225.5  C 404.36 225.5  407 228.14  407 231.5  C 407 234.86  404.36 237.5  401 237.5  C 397.64 237.5  395 234.86  395 231.5  C 395 228.14  397.64 225.5  401 225.5  Z " fill-rule="nonzero" fill="#ffffff" stroke="none" />
  <path d="M 401 226  C 404.08 226  406.5 228.42  406.5 231.5  C 406.5 234.58  404.08 237  401 237  C 397.92 237  395.5 234.58  395.5 231.5  C 395.5 228.42  397.92 226  401 226  Z " stroke-width="1" stroke="#797979" fill="none" />
  <path d="M 401 234.5  C 399.32 234.5  398 233.18  398 231.5  C 398 229.82  399.32 228.5  401 228.5  C 402.68 228.5  404 229.82  404 231.5  C 404 233.18  402.68 234.5  401 234.5  " fill-rule="nonzero" fill="#797979" stroke="none" />
</svg>