<?xml version="1.0" encoding="utf-8"?>
<svg version="1.1" xmlns:xlink="http://www.w3.org/1999/xlink" width="12px" height="12px" viewBox="138 225.5  12 12" xmlns="http://www.w3.org/2000/svg">
  <path d="M 144 225.5  C 147.36 225.5  150 228.14  150 231.5  C 150 234.86  147.36 237.5  144 237.5  C 140.64 237.5  138 234.86  138 231.5  C 138 228.14  140.64 225.5  144 225.5  Z " fill-rule="nonzero" fill="#ffffff" stroke="none" />
  <path d="M 144 226  C 147.08 226  149.5 228.42  149.5 231.5  C 149.5 234.58  147.08 237  144 237  C 140.92 237  138.5 234.58  138.5 231.5  C 138.5 228.42  140.92 226  144 226  Z " stroke-width="1" stroke="#797979" fill="none" />
  <path d="M 144 234.5  C 142.32 234.5  141 233.18  141 231.5  C 141 229.82  142.32 228.5  144 228.5  C 145.68 228.5  147 229.82  147 231.5  C 147 233.18  145.68 234.5  144 234.5  " fill-rule="nonzero" fill="#797979" stroke="none" />
</svg>