<?xml version="1.0" encoding="utf-8"?>
<svg version="1.1" xmlns:xlink="http://www.w3.org/1999/xlink" width="200px" height="40px" xmlns="http://www.w3.org/2000/svg">
  <defs>
    <mask fill="white" id="clip6">
      <path d="M 0 40  L 0 0  L 54.8936170212766 0  L 180 0  C 191.2 0  200 8.79999999999995  200 20  C 200 31.2  191.2 40  180 40  L 0 40  Z " fill-rule="evenodd" />
    </mask>
  </defs>
  <g transform="matrix(1 0 0 1 -80 -80 )">
    <path d="M 0 40  L 0 0  L 54.8936170212766 0  L 180 0  C 191.2 0  200 8.79999999999995  200 20  C 200 31.2  191.2 40  180 40  L 0 40  Z " fill-rule="nonzero" fill="#1492ff" stroke="none" fill-opacity="0.996078431372549" transform="matrix(1 0 0 1 80 80 )" />
    <path d="M 0 40  L 0 0  L 54.8936170212766 0  L 180 0  C 191.2 0  200 8.79999999999995  200 20  C 200 31.2  191.2 40  180 40  L 0 40  Z " stroke-width="2" stroke="#797979" fill="none" transform="matrix(1 0 0 1 80 80 )" mask="url(#clip6)" />
  </g>
</svg>