<?xml version="1.0" encoding="utf-8"?>
<svg version="1.1" xmlns:xlink="http://www.w3.org/1999/xlink" width="12px" height="12px" viewBox="177 338.5  12 12" xmlns="http://www.w3.org/2000/svg">
  <path d="M 183 338.5  C 186.36 338.5  189 341.14  189 344.5  C 189 347.86  186.36 350.5  183 350.5  C 179.64 350.5  177 347.86  177 344.5  C 177 341.14  179.64 338.5  183 338.5  Z " fill-rule="nonzero" fill="#ffffff" stroke="none" />
  <path d="M 183 339  C 186.08 339  188.5 341.42  188.5 344.5  C 188.5 347.58  186.08 350  183 350  C 179.92 350  177.5 347.58  177.5 344.5  C 177.5 341.42  179.92 339  183 339  Z " stroke-width="1" stroke="#797979" fill="none" />
  <path d="M 183 347.5  C 181.32 347.5  180 346.18  180 344.5  C 180 342.82  181.32 341.5  183 341.5  C 184.68 341.5  186 342.82  186 344.5  C 186 346.18  184.68 347.5  183 347.5  " fill-rule="nonzero" fill="#797979" stroke="none" />
</svg>