<?xml version="1.0" encoding="utf-8"?>
<svg version="1.1" xmlns:xlink="http://www.w3.org/1999/xlink" width="12px" height="12px" viewBox="77 72.5  12 12" xmlns="http://www.w3.org/2000/svg">
  <path d="M 83 72.5  C 86.36 72.5  89 75.14  89 78.5  C 89 81.86  86.36 84.5  83 84.5  C 79.64 84.5  77 81.86  77 78.5  C 77 75.14  79.64 72.5  83 72.5  Z " fill-rule="nonzero" fill="#ffffff" stroke="none" />
  <path d="M 83 73  C 86.08 73  88.5 75.42  88.5 78.5  C 88.5 81.58  86.08 84  83 84  C 79.92 84  77.5 81.58  77.5 78.5  C 77.5 75.42  79.92 73  83 73  Z " stroke-width="1" stroke="#797979" fill="none" />
  <path d="M 83 81.5  C 81.32 81.5  80 80.18  80 78.5  C 80 76.82  81.32 75.5  83 75.5  C 84.68 75.5  86 76.82  86 78.5  C 86 80.18  84.68 81.5  83 81.5  " fill-rule="nonzero" fill="#797979" stroke="none" />
</svg>