<?xml version="1.0" encoding="utf-8"?>
<svg version="1.1" xmlns:xlink="http://www.w3.org/1999/xlink" width="12px" height="12px" viewBox="177 157.5  12 12" xmlns="http://www.w3.org/2000/svg">
  <path d="M 183 157.5  C 186.36 157.5  189 160.14  189 163.5  C 189 166.86  186.36 169.5  183 169.5  C 179.64 169.5  177 166.86  177 163.5  C 177 160.14  179.64 157.5  183 157.5  Z " fill-rule="nonzero" fill="#ffffff" stroke="none" />
  <path d="M 183 158  C 186.08 158  188.5 160.42  188.5 163.5  C 188.5 166.58  186.08 169  183 169  C 179.92 169  177.5 166.58  177.5 163.5  C 177.5 160.42  179.92 158  183 158  Z " stroke-width="1" stroke="#797979" fill="none" />
  <path d="M 183 166.5  C 181.32 166.5  180 165.18  180 163.5  C 180 161.82  181.32 160.5  183 160.5  C 184.68 160.5  186 161.82  186 163.5  C 186 165.18  184.68 166.5  183 166.5  " fill-rule="nonzero" fill="#797979" stroke="none" />
</svg>