<?xml version="1.0" encoding="utf-8"?>
<svg version="1.1" xmlns:xlink="http://www.w3.org/1999/xlink" width="12px" height="12px" viewBox="77 433.5  12 12" xmlns="http://www.w3.org/2000/svg">
  <path d="M 83 433.5  C 86.36 433.5  89 436.14  89 439.5  C 89 442.86  86.36 445.5  83 445.5  C 79.64 445.5  77 442.86  77 439.5  C 77 436.14  79.64 433.5  83 433.5  Z " fill-rule="nonzero" fill="#ffffff" stroke="none" />
  <path d="M 83 434  C 86.08 434  88.5 436.42  88.5 439.5  C 88.5 442.58  86.08 445  83 445  C 79.92 445  77.5 442.58  77.5 439.5  C 77.5 436.42  79.92 434  83 434  Z " stroke-width="1" stroke="#797979" fill="none" />
  <path d="M 83 442.5  C 81.32 442.5  80 441.18  80 439.5  C 80 437.82  81.32 436.5  83 436.5  C 84.68 436.5  86 437.82  86 439.5  C 86 441.18  84.68 442.5  83 442.5  " fill-rule="nonzero" fill="#797979" stroke="none" />
</svg>