<?xml version="1.0" encoding="utf-8"?>
<svg version="1.1" xmlns:xlink="http://www.w3.org/1999/xlink" width="12px" height="12px" viewBox="77 157.5  12 12" xmlns="http://www.w3.org/2000/svg">
  <path d="M 83 157.5  C 86.36 157.5  89 160.14  89 163.5  C 89 166.86  86.36 169.5  83 169.5  C 79.64 169.5  77 166.86  77 163.5  C 77 160.14  79.64 157.5  83 157.5  Z " fill-rule="nonzero" fill="#ffffff" stroke="none" />
  <path d="M 83 158  C 86.08 158  88.5 160.42  88.5 163.5  C 88.5 166.58  86.08 169  83 169  C 79.92 169  77.5 166.58  77.5 163.5  C 77.5 160.42  79.92 158  83 158  Z " stroke-width="1" stroke="#797979" fill="none" />
  <path d="M 83 166.5  C 81.32 166.5  80 165.18  80 163.5  C 80 161.82  81.32 160.5  83 160.5  C 84.68 160.5  86 161.82  86 163.5  C 86 165.18  84.68 166.5  83 166.5  " fill-rule="nonzero" fill="#797979" stroke="none" />
</svg>