<?xml version="1.0" encoding="utf-8"?>
<svg version="1.1" xmlns:xlink="http://www.w3.org/1999/xlink" width="12px" height="12px" viewBox="177 72.5  12 12" xmlns="http://www.w3.org/2000/svg">
  <path d="M 183 72.5  C 186.36 72.5  189 75.14  189 78.5  C 189 81.86  186.36 84.5  183 84.5  C 179.64 84.5  177 81.86  177 78.5  C 177 75.14  179.64 72.5  183 72.5  Z " fill-rule="nonzero" fill="#ffffff" stroke="none" />
  <path d="M 183 73  C 186.08 73  188.5 75.42  188.5 78.5  C 188.5 81.58  186.08 84  183 84  C 179.92 84  177.5 81.58  177.5 78.5  C 177.5 75.42  179.92 73  183 73  Z " stroke-width="1" stroke="#797979" fill="none" />
  <path d="M 183 81.5  C 181.32 81.5  180 80.18  180 78.5  C 180 76.82  181.32 75.5  183 75.5  C 184.68 75.5  186 76.82  186 78.5  C 186 80.18  184.68 81.5  183 81.5  " fill-rule="nonzero" fill="#797979" stroke="none" />
</svg>