<?xml version="1.0" encoding="utf-8"?>
<svg version="1.1" xmlns:xlink="http://www.w3.org/1999/xlink" width="12px" height="12px" viewBox="77 253.5  12 12" xmlns="http://www.w3.org/2000/svg">
  <path d="M 83 253.5  C 86.36 253.5  89 256.14  89 259.5  C 89 262.86  86.36 265.5  83 265.5  C 79.64 265.5  77 262.86  77 259.5  C 77 256.14  79.64 253.5  83 253.5  Z " fill-rule="nonzero" fill="#ffffff" stroke="none" />
  <path d="M 83 254  C 86.08 254  88.5 256.42  88.5 259.5  C 88.5 262.58  86.08 265  83 265  C 79.92 265  77.5 262.58  77.5 259.5  C 77.5 256.42  79.92 254  83 254  Z " stroke-width="1" stroke="#797979" fill="none" />
  <path d="M 83 262.5  C 81.32 262.5  80 261.18  80 259.5  C 80 257.82  81.32 256.5  83 256.5  C 84.68 256.5  86 257.82  86 259.5  C 86 261.18  84.68 262.5  83 262.5  " fill-rule="nonzero" fill="#797979" stroke="none" />
</svg>