<?xml version="1.0" encoding="utf-8"?>
<svg version="1.1" xmlns:xlink="http://www.w3.org/1999/xlink" width="12px" height="12px" viewBox="177 614.5  12 12" xmlns="http://www.w3.org/2000/svg">
  <path d="M 183 614.5  C 186.36 614.5  189 617.14  189 620.5  C 189 623.86  186.36 626.5  183 626.5  C 179.64 626.5  177 623.86  177 620.5  C 177 617.14  179.64 614.5  183 614.5  Z " fill-rule="nonzero" fill="#ffffff" stroke="none" />
  <path d="M 183 615  C 186.08 615  188.5 617.42  188.5 620.5  C 188.5 623.58  186.08 626  183 626  C 179.92 626  177.5 623.58  177.5 620.5  C 177.5 617.42  179.92 615  183 615  Z " stroke-width="1" stroke="#797979" fill="none" />
  <path d="M 183 623.5  C 181.32 623.5  180 622.18  180 620.5  C 180 618.82  181.32 617.5  183 617.5  C 184.68 617.5  186 618.82  186 620.5  C 186 622.18  184.68 623.5  183 623.5  " fill-rule="nonzero" fill="#797979" stroke="none" />
</svg>