<?xml version="1.0" encoding="utf-8"?>
<svg version="1.1" xmlns:xlink="http://www.w3.org/1999/xlink" width="12px" height="12px" viewBox="177 433.5  12 12" xmlns="http://www.w3.org/2000/svg">
  <path d="M 183 433.5  C 186.36 433.5  189 436.14  189 439.5  C 189 442.86  186.36 445.5  183 445.5  C 179.64 445.5  177 442.86  177 439.5  C 177 436.14  179.64 433.5  183 433.5  Z " fill-rule="nonzero" fill="#ffffff" stroke="none" />
  <path d="M 183 434  C 186.08 434  188.5 436.42  188.5 439.5  C 188.5 442.58  186.08 445  183 445  C 179.92 445  177.5 442.58  177.5 439.5  C 177.5 436.42  179.92 434  183 434  Z " stroke-width="1" stroke="#797979" fill="none" />
  <path d="M 183 442.5  C 181.32 442.5  180 441.18  180 439.5  C 180 437.82  181.32 436.5  183 436.5  C 184.68 436.5  186 437.82  186 439.5  C 186 441.18  184.68 442.5  183 442.5  " fill-rule="nonzero" fill="#797979" stroke="none" />
</svg>