<?xml version="1.0" encoding="utf-8"?>
<svg version="1.1" xmlns:xlink="http://www.w3.org/1999/xlink" width="12px" height="12px" viewBox="77 614.5  12 12" xmlns="http://www.w3.org/2000/svg">
  <path d="M 83 614.5  C 86.36 614.5  89 617.14  89 620.5  C 89 623.86  86.36 626.5  83 626.5  C 79.64 626.5  77 623.86  77 620.5  C 77 617.14  79.64 614.5  83 614.5  Z " fill-rule="nonzero" fill="#ffffff" stroke="none" />
  <path d="M 83 615  C 86.08 615  88.5 617.42  88.5 620.5  C 88.5 623.58  86.08 626  83 626  C 79.92 626  77.5 623.58  77.5 620.5  C 77.5 617.42  79.92 615  83 615  Z " stroke-width="1" stroke="#797979" fill="none" />
  <path d="M 83 623.5  C 81.32 623.5  80 622.18  80 620.5  C 80 618.82  81.32 617.5  83 617.5  C 84.68 617.5  86 618.82  86 620.5  C 86 622.18  84.68 623.5  83 623.5  " fill-rule="nonzero" fill="#797979" stroke="none" />
</svg>