<?xml version="1.0" encoding="utf-8"?>
<svg version="1.1" xmlns:xlink="http://www.w3.org/1999/xlink" width="20px" height="20px" xmlns="http://www.w3.org/2000/svg">
  <g transform="matrix(1 0 0 1 -404 -505 )">
    <path d="M 414 505.5  C 419.32 505.5  423.5 509.68  423.5 515  C 423.5 520.32  419.32 524.5  414 524.5  C 408.68 524.5  404.5 520.32  404.5 515  C 404.5 509.68  408.68 505.5  414 505.5  Z " fill-rule="nonzero" fill="#ffffff" stroke="none" />
    <path d="M 414 505.5  C 419.32 505.5  423.5 509.68  423.5 515  C 423.5 520.32  419.32 524.5  414 524.5  C 408.68 524.5  404.5 520.32  404.5 515  C 404.5 509.68  408.68 505.5  414 505.5  Z " stroke-width="1" stroke="#1890ff" fill="none" stroke-opacity="0.996078431372549" />
  </g>
</svg>