<?xml version="1.0" encoding="utf-8"?>
<svg version="1.1" xmlns:xlink="http://www.w3.org/1999/xlink" width="20px" height="20px" xmlns="http://www.w3.org/2000/svg">
  <g transform="matrix(1 0 0 1 -778 -394 )">
    <path d="M 788 394  C 793.6 394  798 398.4  798 404  C 798 409.6  793.6 414  788 414  C 782.4 414  778 409.6  778 404  C 778 398.4  782.4 394  788 394  Z " fill-rule="nonzero" fill="#ffffff" stroke="none" />
    <path d="M 788 394.5  C 793.32 394.5  797.5 398.68  797.5 404  C 797.5 409.32  793.32 413.5  788 413.5  C 782.68 413.5  778.5 409.32  778.5 404  C 778.5 398.68  782.68 394.5  788 394.5  Z " stroke-width="1" stroke="#797979" fill="none" />
  </g>
</svg>