<?xml version="1.0" encoding="utf-8"?>
<svg version="1.1" xmlns:xlink="http://www.w3.org/1999/xlink" width="10px" height="166px" preserveAspectRatio="xMidYMin meet" viewBox="407 579  8 166" xmlns="http://www.w3.org/2000/svg">
  <defs>
    <mask fill="white" id="clip64">
      <path d="M 395 684  L 427 684  L 427 708  L 395 708  Z M 347 581  L 427 581  L 427 767  L 347 767  Z " fill-rule="evenodd" />
    </mask>
  </defs>
  <path d="M 406.5 584.5  A 5 5 0 0 1 411.5 589.5 L 411.5 735  A 5 5 0 0 1 406.5 740.5 L 361 740.5  A 5 5 0 0 0 356.5 745.5 L 356.5 757  " stroke-width="1" stroke="#0099cc" fill="none" mask="url(#clip64)" />
  <path d="M 361.146446609407 751.946446609407  L 356.5 756.592893218814  L 351.853553390593 751.946446609407  L 351.146446609407 752.653553390593  L 356.146446609407 757.653553390593  L 356.5 758.007106781187  L 356.853553390593 757.653553390593  L 361.853553390593 752.653553390593  L 361.146446609407 751.946446609407  Z " fill-rule="nonzero" fill="#0099cc" stroke="none" mask="url(#clip64)" />
</svg>